<svg width="96" height="100" viewBox="0 0 96 100" fill="none" xmlns="http://www.w3.org/2000/svg">
<path d="M51.36 65.632C50.71 67.042 49.87 68.402 49.44 69.872C47.47 76.742 45.73 83.682 43.68 90.522C42.87 93.212 41.52 95.752 40.29 98.302C39.75 99.432 36.21 99.792 34.63 99.072C31.83 97.802 30.67 95.162 29.84 92.592C27.97 86.802 26.68 80.832 24.76 75.062C23.39 70.932 21.6 66.922 19.63 63.042C18.33 60.492 16.62 58.062 14.68 55.952C11.31 52.282 6.9 50.582 1.94 50.272C1.32 50.232 0.69 50.192 0.0699997 50.162C0.0499997 49.992 0.02 49.822 0 49.652C0.48 49.542 0.96 49.362 1.44 49.332C8.64 48.992 14.06 45.692 18 39.682C21.71 34.012 23.73 27.732 25.6 21.282C27.27 15.522 28.12 9.47198 31.18 4.15198C31.35 3.85198 31.51 3.53198 31.7 3.24198C34.57 -1.16802 39.18 -1.11802 41.48 3.63198C43.04 6.87198 44.07 10.402 45.01 13.892C46.91 20.872 48.37 27.982 51.65 34.872C51.99 34.282 52.27 33.942 52.39 33.562C53.77 28.962 55.05 24.332 56.52 19.752C57.14 17.812 57.94 15.862 59.02 14.152C60.83 11.272 64.5 11.582 65.82 14.742C67.3 18.292 68.39 22.002 69.74 25.612C71.02 29.042 72.21 32.522 73.84 35.792C75.15 38.422 76.73 41.052 78.74 43.162C82.7 47.322 87.9 49.032 93.58 49.352C93.99 49.372 94.4 49.392 94.81 49.452C94.97 49.472 95.11 49.612 95.74 49.952C93.53 50.262 91.75 50.502 89.97 50.782C84.59 51.632 80.34 54.222 76.89 58.532C72.12 64.502 70.51 71.712 68.23 78.702C67.51 80.912 66.74 83.162 65.57 85.152C63.76 88.242 60.74 88.312 58.89 85.232C57.53 82.952 56.65 80.352 55.8 77.812C54.49 73.872 53.39 69.862 52.2 65.882C51.92 65.802 51.64 65.722 51.36 65.642V65.632Z" fill="#AFBCFD"/>
<path d="M2.08008 49.782C10.4101 48.822 15.7301 44.292 19.5301 37.672C22.2401 32.952 24.1601 27.912 25.4101 22.612C25.5001 22.232 25.7901 21.902 26.0201 21.502C27.0901 25.042 28.0101 28.582 29.2301 32.002C30.3801 35.232 31.8601 38.282 34.2201 40.912C38.9501 46.172 46.7801 44.952 50.6001 39.102C51.1801 38.202 51.7501 37.302 52.5001 36.122C56.4301 43.282 61.8101 48.252 69.9601 49.922C61.6201 51.432 56.3501 56.602 52.4801 63.762C50.9901 61.802 49.8101 59.992 48.3701 58.402C45.2401 54.952 39.4501 54.212 35.9201 58.142C32.6301 61.802 31.1401 66.332 29.9301 70.952C29.0801 74.212 28.4601 77.532 27.7001 80.822C27.5701 81.392 27.3001 81.942 27.0501 82.592C25.7301 78.252 24.5601 74.022 23.1501 69.882C21.4201 64.812 18.9501 60.082 15.2101 56.222C11.9001 52.812 7.86008 50.522 2.96008 50.142C2.81008 50.132 2.67008 50.022 2.09008 49.772L2.08008 49.782Z" fill="#6079FB"/>
</svg>
