<svg width="111" height="28" viewBox="0 0 111 28" fill="none" xmlns="http://www.w3.org/2000/svg">
<g clip-path="url(#clip0_112_2568)">
<path d="M81.4112 12.3994C81.3219 12.3461 81.2436 12.3041 81.171 12.2564C80.7995 12.0181 80.3945 11.9003 79.9532 11.8947C79.822 11.8947 79.6906 11.8919 79.5594 11.8947C78.8554 11.9171 78.3694 12.2648 78.0874 12.9041C77.9142 13.2967 77.8415 13.7005 77.8443 14.1351C77.8582 15.5343 77.8499 16.9306 77.8499 18.3299C77.8499 18.3943 77.8443 18.4587 77.8415 18.5177C77.674 18.5682 74.9478 18.5822 74.6461 18.5317C74.6321 18.2289 74.6434 17.9205 74.6405 17.6092C74.6405 17.2952 74.6405 16.9839 74.6405 16.6699C74.6405 16.3586 74.6405 16.0446 74.6014 15.7193C74.5791 15.7557 74.5512 15.7895 74.5315 15.8287C73.931 17.1409 72.9199 17.9989 71.5792 18.4812C70.8836 18.7307 70.1603 18.8402 69.4173 18.8373C68.6911 18.8373 67.9815 18.756 67.2888 18.5345C66.0067 18.1279 65.0012 17.3793 64.3533 16.182C64.342 16.1596 64.3197 16.1399 64.275 16.081V18.5317C64.0516 18.5822 63.8421 18.5513 63.6326 18.5569C63.4147 18.5626 63.1969 18.5569 62.979 18.5569C62.7667 18.5569 62.5572 18.5569 62.3449 18.5569C62.127 18.5569 61.9091 18.5569 61.6912 18.5569C61.4818 18.5569 61.2751 18.5542 61.0405 18.5513C61.0405 18.4363 61.0405 18.3523 61.0405 18.2653C61.0405 16.7147 61.0433 15.1642 61.0405 13.6107C61.0405 13.3584 61.0321 13.0976 60.9763 12.8508C60.7695 11.9564 60.1466 11.5919 59.2584 11.676C58.5266 11.7461 58.0378 12.3181 58.0378 13.078C58.0322 14.6426 58.0378 16.21 58.0378 17.7746C58.0378 17.9709 58.0406 18.1672 58.0378 18.3635C58.0378 18.5177 58.0126 18.5402 57.8619 18.5513C57.8171 18.5542 57.7752 18.5513 57.7305 18.5513C56.8367 18.5513 55.9402 18.5513 55.0463 18.5513C54.9736 18.5513 54.9039 18.5457 54.8088 18.5402C54.8004 18.4307 54.7865 18.3326 54.7865 18.2345C54.7865 16.625 54.7865 15.0155 54.7949 13.406C54.7949 13.1032 54.7557 12.8116 54.6385 12.5312C54.4318 12.0405 54.0687 11.7573 53.538 11.6788C53.281 11.6423 53.0295 11.6451 52.7782 11.7068C52.2419 11.8386 51.9709 12.2256 51.8369 12.7247C51.7866 12.9125 51.7754 13.1144 51.7754 13.3079C51.7727 14.9679 51.7754 16.6277 51.7754 18.2877C51.7754 18.3579 51.7754 18.4307 51.7754 18.4925C51.5966 18.5569 48.8034 18.5682 48.5745 18.5093V9.33466H51.7614V10.2628C51.8621 10.1815 51.9207 10.1366 51.9766 10.0889C52.4235 9.68516 52.9207 9.3627 53.5016 9.18044C54.0184 9.02061 54.5407 8.99818 55.0742 9.08791C55.4206 9.14398 55.753 9.23933 56.0798 9.3655C56.6691 9.58983 57.1439 9.95714 57.4903 10.4871C57.5182 10.5292 57.549 10.5712 57.5797 10.6105C57.5936 10.6273 57.6133 10.6357 57.644 10.6581C57.683 10.6189 57.725 10.5824 57.7641 10.5432C57.9679 10.3441 58.1579 10.1338 58.3729 9.94873C59.4651 9.01501 60.6969 8.82434 62.0489 9.26456C62.4623 9.39916 62.8365 9.60384 63.1801 9.86461C63.6828 10.2432 63.9845 10.7591 64.1325 11.3619C64.1772 11.5386 64.2051 11.718 64.2442 11.9143C64.275 11.8667 64.3029 11.8302 64.3252 11.7909C64.7862 10.9105 65.4872 10.2684 66.3392 9.7861C67.0067 9.41037 67.7245 9.20287 68.4843 9.09633C68.9145 9.03744 69.3418 9.02061 69.7664 9.04586C70.8838 9.11596 71.9256 9.42158 72.8473 10.0805C73.4897 10.5404 74.026 11.0984 74.3891 11.805C74.4645 11.9536 74.526 12.1078 74.6153 12.3041C74.6629 12.0237 74.6237 11.7825 74.6321 11.5414C74.6405 11.3002 74.6321 11.0619 74.6321 10.8208C74.6321 10.574 74.6321 10.3245 74.6321 10.0777C74.6321 9.83938 74.6321 9.60104 74.6321 9.3655C74.7941 9.31223 77.5483 9.30101 77.8304 9.35148V10.5404C77.8304 10.5404 77.8555 10.5544 77.8695 10.56C77.9085 10.5151 77.9449 10.4731 77.9839 10.4282C78.5231 9.81694 79.1403 9.32906 79.956 9.13277C80.9001 8.90846 81.7716 9.10754 82.6011 9.5674C82.6318 9.58421 82.657 9.60946 82.7017 9.6459C82.5006 10.0609 82.2994 10.4675 82.0983 10.8768C82.9028 9.83937 83.9391 9.20287 85.249 9.06267C86.5394 8.92528 87.7155 9.23653 88.7518 10.1226V9.33747C89.0338 9.30101 89.2992 9.32344 89.5645 9.32064C89.8327 9.31784 90.1037 9.32064 90.3718 9.32064C90.6343 9.32064 90.8969 9.32064 91.1566 9.32064C91.4249 9.32064 91.6901 9.32064 91.9723 9.32064V18.5205C91.9136 18.5289 91.8522 18.5457 91.7907 18.5457C90.8438 18.5457 89.8998 18.5457 88.9528 18.5457C88.9109 18.5457 88.8662 18.5373 88.7992 18.5289C88.7461 18.2289 88.7936 17.9232 88.7713 17.5812C88.6987 17.6429 88.6512 17.6765 88.6065 17.7186C88.0172 18.2822 87.3216 18.6495 86.5116 18.7616C84.6708 19.0196 83.1766 18.4252 82.0815 16.9055C81.5398 16.1539 81.2799 15.2987 81.2102 14.379C81.1626 13.7425 81.2157 13.1144 81.3777 12.4975C81.3861 12.4639 81.3916 12.4274 81.4 12.3854L81.4112 12.3994ZM67.2861 13.922C67.2861 14.0005 67.2861 14.0425 67.2861 14.0874C67.2972 14.8893 67.6632 15.4726 68.367 15.8512C68.7274 16.0446 69.1156 16.067 69.5122 16.0557C70.2133 16.0362 70.744 15.7137 71.1379 15.1445C71.3613 14.822 71.4395 14.4547 71.4563 14.0706C71.473 13.6892 71.4395 13.3079 71.2523 12.9686C70.8446 12.2256 70.2273 11.8302 69.3586 11.8302C68.7385 11.8302 68.2217 12.0489 67.8028 12.4947C67.4201 12.9013 67.2525 13.3948 67.2861 13.9192V13.922ZM86.721 16.0726C86.9166 16.0502 87.1176 16.053 87.3021 15.9997C88.0981 15.7755 88.6093 15.265 88.7741 14.4435C88.8885 13.8771 88.8467 13.3163 88.531 12.8228C87.9836 11.9676 87.2267 11.7124 86.3384 11.861C85.506 12.0012 84.9278 12.506 84.7156 13.3472C84.6513 13.6023 84.6681 13.8799 84.6597 14.1491C84.6485 14.6062 84.8077 15.0072 85.0983 15.352C85.52 15.8512 86.0647 16.0782 86.7183 16.0755L86.721 16.0726Z" fill="#F0F0F0"/>
<path d="M44.9266 10.1339V9.38245C45.1025 9.32076 47.8818 9.31515 48.1499 9.37124V18.5346C48.0829 18.543 48.013 18.5599 47.9433 18.5599C47.0271 18.5599 46.1109 18.5599 45.1919 18.5599C45.1277 18.5599 45.0634 18.5487 44.9796 18.5403C44.9265 18.2318 44.974 17.9261 44.9461 17.5784C44.5383 17.9599 44.1306 18.2963 43.6389 18.4981C43.1445 18.7 42.6333 18.8263 42.0943 18.8347C41.5608 18.8403 41.0385 18.7841 40.5273 18.6216C40.0133 18.4588 39.5525 18.2094 39.1334 17.8701C38.72 17.5336 38.3849 17.127 38.086 16.6587C38.0582 16.7149 38.0358 16.7513 38.0219 16.7906C37.7229 17.6681 37.0777 18.1813 36.2342 18.4814C35.7788 18.644 35.3096 18.7281 34.832 18.787C34.3096 18.8514 33.7845 18.8571 33.2649 18.8123C32.5443 18.7533 31.8544 18.5458 31.1981 18.229C30.8238 18.0467 30.4578 17.7916 30.2456 17.5589C30.673 16.8383 31.1059 16.1149 31.5472 15.3717C31.6199 15.4223 31.6785 15.4558 31.7316 15.5007C32.1561 15.8428 32.6394 16.0783 33.1364 16.283C33.5052 16.4373 33.8907 16.4429 34.2733 16.3756C34.6616 16.3083 34.8544 15.9914 34.7538 15.6129C34.7119 15.4614 34.6001 15.3633 34.4689 15.2989C34.2258 15.1811 33.9829 15.0689 33.7314 14.9764C33.0528 14.7269 32.4019 14.424 31.8349 13.9642C31.4047 13.6165 31.064 13.2071 30.9579 12.6491C30.7316 11.4686 31.103 10.3498 32.2008 9.70491C33.1532 9.14411 34.1951 9.01514 35.2705 9.05999C35.9493 9.08804 36.6112 9.23384 37.2564 9.44134C37.5162 9.52545 37.762 9.65444 38.0385 9.77501C37.695 10.5069 37.3375 11.191 36.9856 11.906C36.8794 11.8612 36.7928 11.8331 36.7118 11.7911C36.3068 11.5836 35.8794 11.435 35.4297 11.3873C35.1196 11.3536 34.8069 11.3649 34.4941 11.3649C34.4297 11.3649 34.3656 11.3901 34.3041 11.4097C34.1448 11.4546 34.0303 11.5499 33.9968 11.7182C33.9605 11.9088 33.9884 12.0883 34.1504 12.2117C34.2649 12.2958 34.3963 12.3715 34.5303 12.422C34.8767 12.5509 35.2287 12.6687 35.5833 12.7753C36.2119 12.9659 36.7817 13.2604 37.2928 13.6697C37.3095 13.681 37.3291 13.6866 37.3765 13.709C37.3849 13.6052 37.3877 13.5155 37.3961 13.4258C37.5525 11.7434 38.3374 10.4536 39.7927 9.58714C40.2283 9.32918 40.7116 9.19739 41.2116 9.11326C41.801 9.01232 42.3847 9.03756 42.9658 9.15532C43.6026 9.28431 44.1808 9.55069 44.692 9.95446C44.759 10.0077 44.826 10.0554 44.9266 10.1339ZM42.8931 16.07C43.0803 16.0503 43.2757 16.0559 43.4546 16.0054C44.3038 15.7643 44.8289 15.2119 44.9629 14.3287C45.0494 13.7651 44.9796 13.2183 44.6473 12.7416C44.2283 12.1444 43.6528 11.8303 42.9071 11.8331C42.1558 11.8331 41.5663 12.1332 41.1445 12.7416C40.8065 13.2267 40.7536 13.7819 40.8346 14.3538C40.9295 15.0268 41.2787 15.526 41.8848 15.8429C42.2032 16.0083 42.5411 16.0727 42.8988 16.0727L42.8931 16.07Z" fill="#F0F0F0"/>
<path d="M103.857 10.0835V9.38248C104.036 9.3236 106.821 9.318 107.081 9.37127V18.5347C107.005 18.5431 106.927 18.5599 106.851 18.5599C105.958 18.5599 105.061 18.5599 104.167 18.5599C104.089 18.5599 104.011 18.5514 103.913 18.5431C103.86 18.2319 103.907 17.9261 103.879 17.5981C103.826 17.6374 103.785 17.6599 103.751 17.6907C103.097 18.344 102.304 18.731 101.394 18.8123C99.8098 18.958 98.4523 18.4786 97.416 17.2196C96.7374 16.3953 96.3826 15.4447 96.3184 14.3791C96.2625 13.4623 96.3574 12.5734 96.7569 11.7378C97.3992 10.3975 98.4021 9.4638 99.8852 9.15537C101.262 8.86655 102.544 9.1049 103.673 9.99095C103.712 10.0218 103.754 10.0526 103.796 10.0807C103.804 10.0863 103.824 10.0807 103.854 10.0807L103.857 10.0835ZM101.821 16.0616C101.958 16.0531 102.097 16.0476 102.234 16.0363C102.285 16.0336 102.335 16.0223 102.385 16.0083C103.234 15.7587 103.759 15.212 103.891 14.3287C103.98 13.7343 103.902 13.1622 103.525 12.6687C103.069 12.0715 102.463 11.7883 101.704 11.8332C100.891 11.8808 100.299 12.2622 99.9327 12.9828C99.7177 13.4062 99.6925 13.8632 99.7567 14.3259C99.8629 15.0886 100.276 15.6213 100.986 15.9214C101.254 16.0336 101.533 16.0616 101.821 16.0587V16.0616Z" fill="#F0F0F0"/>
<path d="M107.51 18.5234V9.37128C107.687 9.32641 110.429 9.3152 110.672 9.35727C110.717 9.50587 110.731 18.2683 110.689 18.5179C110.533 18.5739 107.737 18.5852 107.51 18.5263V18.5234Z" fill="#F0F0F0"/>
<path d="M92.4165 16.74C92.355 15.7754 93.1986 14.6791 94.4556 14.6791C95.7237 14.6791 96.5504 15.7054 96.5477 16.7906C96.5477 17.9373 95.4946 18.8711 94.4165 18.8486C93.4556 18.8261 92.3384 17.929 92.4138 16.7429L92.4165 16.74Z" fill="#F0F0F0"/>
<path d="M110.994 5.56613C111.078 6.34563 110.293 7.42797 109.15 7.41956C108.028 7.41114 107.285 6.42976 107.287 5.5437C107.293 4.69129 108.047 3.7127 109.139 3.70429C110.148 3.69587 110.991 4.54549 110.991 5.56893L110.994 5.56613Z" fill="#F0F0F0"/>
<path d="M14.3459 18.403C14.1643 18.7984 13.9296 19.1797 13.8095 19.592C13.2593 21.5183 12.7733 23.4643 12.2007 25.3821C11.9744 26.1364 11.5973 26.8486 11.2538 27.5636C11.1029 27.8804 10.1141 27.9814 9.67282 27.7796C8.89073 27.4234 8.56672 26.6831 8.33489 25.9626C7.81256 24.339 7.45224 22.6651 6.91594 21.0471C6.53327 19.8891 6.03329 18.7647 5.48303 17.6769C5.11992 16.9619 4.64229 16.2804 4.10041 15.6889C3.1591 14.6597 1.9273 14.1831 0.541879 14.0961C0.368701 14.0849 0.19273 14.0737 0.0195522 14.0653C0.0139659 14.0176 0.00558639 13.97 0 13.9223C0.134073 13.8915 0.268146 13.841 0.40222 13.8326C2.41331 13.7372 3.92722 12.8119 5.02774 11.1267C6.06402 9.53687 6.62825 7.77599 7.15058 5.96741C7.61703 4.35233 7.85446 2.65591 8.70917 1.16421C8.75666 1.08009 8.80135 0.990359 8.85441 0.909045C9.65606 -0.32751 10.9437 -0.31349 11.5862 1.0184C12.0219 1.92689 12.3096 2.91669 12.5722 3.89529C13.1029 5.85246 13.5107 7.84608 14.4269 9.77801C14.5218 9.61258 14.6001 9.51724 14.6335 9.4107C15.019 8.12087 15.3765 6.82263 15.7872 5.5384C15.9602 4.99444 16.1838 4.44766 16.4853 3.96819C16.991 3.16064 18.0162 3.24756 18.3847 4.13361C18.7981 5.12903 19.1027 6.1693 19.4798 7.18154C19.8373 8.1433 20.1697 9.11909 20.6249 10.036C20.9908 10.7734 21.4321 11.5109 21.9937 12.1025C23.0997 13.269 24.5522 13.7484 26.1386 13.8382C26.2532 13.8438 26.3678 13.8494 26.4822 13.8662C26.527 13.8718 26.566 13.9111 26.742 14.0064C26.1247 14.0933 25.6275 14.1606 25.1304 14.2391C23.6276 14.4774 22.4405 15.2037 21.4768 16.4123C20.1445 18.0861 19.6948 20.1079 19.058 22.0679C18.8568 22.6876 18.6417 23.3184 18.315 23.8764C17.8094 24.7429 16.9658 24.7624 16.4491 23.8989C16.0692 23.2596 15.8235 22.5306 15.586 21.8183C15.2201 20.7136 14.9128 19.5891 14.5804 18.4731C14.5023 18.4507 14.424 18.4283 14.3459 18.4059V18.403Z" fill="#D6D6D6"/>
<path d="M14.3459 18.403C14.1643 18.7984 13.9296 19.1797 13.8095 19.592C13.2593 21.5183 12.7733 23.4643 12.2007 25.3821C11.9744 26.1364 11.5973 26.8486 11.2538 27.5636C11.1029 27.8804 10.1141 27.9814 9.67282 27.7796C8.89073 27.4234 8.56672 26.6831 8.33489 25.9626C7.81256 24.339 7.45224 22.6651 6.91594 21.0471C6.53327 19.8891 6.03329 18.7647 5.48303 17.6769C5.11992 16.9619 4.64229 16.2804 4.10041 15.6889C3.1591 14.6597 1.9273 14.1831 0.541879 14.0961C0.368701 14.0849 0.19273 14.0737 0.0195522 14.0653C0.0139659 14.0176 0.00558639 13.97 0 13.9223C0.134073 13.8915 0.268146 13.841 0.40222 13.8326C2.41331 13.7372 3.92722 12.8119 5.02774 11.1267C6.06402 9.53687 6.62825 7.77599 7.15058 5.96741C7.61703 4.35233 7.85446 2.65591 8.70917 1.16421C8.75666 1.08009 8.80135 0.990359 8.85441 0.909045C9.65606 -0.32751 10.9437 -0.31349 11.5862 1.0184C12.0219 1.92689 12.3096 2.91669 12.5722 3.89529C13.1029 5.85246 13.5107 7.84608 14.4269 9.77801C14.5218 9.61258 14.6001 9.51724 14.6335 9.4107C15.019 8.12087 15.3765 6.82263 15.7872 5.5384C15.9602 4.99444 16.1838 4.44766 16.4853 3.96819C16.991 3.16064 18.0162 3.24756 18.3847 4.13361C18.7981 5.12903 19.1027 6.1693 19.4798 7.18154C19.8373 8.1433 20.1697 9.11909 20.6249 10.036C20.9908 10.7734 21.4321 11.5109 21.9937 12.1025C23.0997 13.269 24.5522 13.7484 26.1386 13.8382C26.2532 13.8438 26.3678 13.8494 26.4822 13.8662C26.527 13.8718 26.566 13.9111 26.742 14.0064C26.1247 14.0933 25.6275 14.1606 25.1304 14.2391C23.6276 14.4774 22.4405 15.2037 21.4768 16.4123C20.1445 18.0861 19.6948 20.1079 19.058 22.0679C18.8568 22.6876 18.6417 23.3184 18.315 23.8764C17.8094 24.7429 16.9658 24.7624 16.4491 23.8989C16.0692 23.2596 15.8235 22.5306 15.586 21.8183C15.2201 20.7136 14.9128 19.5891 14.5804 18.4731C14.5023 18.4507 14.424 18.4283 14.3459 18.4059V18.403Z" fill="#F0F0F0"/>
<path d="M0.59375 14.0996C2.92019 13.8258 4.40598 12.5337 5.46727 10.6456C6.22412 9.29937 6.76035 7.86187 7.10946 6.35022C7.13459 6.24183 7.21558 6.14772 7.27981 6.03363C7.57865 7.04329 7.8356 8.05296 8.17632 9.02842C8.4975 9.94966 8.91083 10.8196 9.56994 11.5697C10.891 13.0699 13.0778 12.722 14.1446 11.0535C14.3065 10.7968 14.4658 10.5401 14.6753 10.2035C15.7729 12.2457 17.2754 13.6632 19.5516 14.1395C17.2223 14.5701 15.7505 16.0447 14.6697 18.0869C14.2536 17.5279 13.924 17.0117 13.5218 16.5581C12.6477 15.5741 11.0306 15.3631 10.0447 16.484C9.12589 17.5279 8.70975 18.82 8.37181 20.1376C8.13443 21.0674 7.96127 22.0144 7.74902 22.9527C7.71271 23.1153 7.63731 23.2721 7.56747 23.4576C7.19883 22.2197 6.87206 21.0133 6.47827 19.8324C5.9951 18.3864 5.30528 17.0373 4.26076 15.9364C3.33633 14.9639 2.20801 14.3106 0.839521 14.2023C0.797629 14.1994 0.758528 14.168 0.596543 14.0967L0.59375 14.0996Z" fill="#CFCFCF"/>
</g>
<defs>
<clipPath id="clip0_112_2568">
<rect width="111" height="28" fill="white"/>
</clipPath>
</defs>
</svg>
