<svg width="36" height="37" viewBox="0 0 36 37" fill="none" xmlns="http://www.w3.org/2000/svg">
<path d="M19.1094 24.4195C18.8675 24.9441 18.555 25.4501 18.395 25.9971C17.662 28.5532 17.0146 31.1353 16.2519 33.6803C15.9505 34.6811 15.4482 35.6262 14.9906 36.575C14.7897 36.9954 13.4726 37.1293 12.8847 36.8614C11.8429 36.3889 11.4113 35.4067 11.1025 34.4505C10.4067 32.2962 9.92676 30.0749 9.21239 27.9281C8.70265 26.3915 8.03665 24.8995 7.30368 23.4559C6.81999 22.5071 6.18376 21.603 5.46195 20.8179C4.20808 19.4524 2.56726 18.8199 0.72181 18.7046C0.491129 18.6897 0.256726 18.6748 0.0260446 18.6636C0.0186033 18.6004 0.00744135 18.5371 0 18.4739C0.178592 18.433 0.357184 18.366 0.535777 18.3548C3.21466 18.2283 5.23127 17.0005 6.69721 14.7644C8.07758 12.6547 8.82916 10.3182 9.52492 7.91833C10.1463 5.77522 10.4625 3.52421 11.6011 1.54482C11.6643 1.4332 11.7238 1.31414 11.7945 1.20624C12.8624 -0.434581 14.5776 -0.415978 15.4334 1.35134C16.0138 2.55684 16.397 3.87024 16.7468 5.16875C17.4537 7.76578 17.9969 10.4112 19.2173 12.9747C19.3438 12.7552 19.448 12.6287 19.4926 12.4873C20.0061 10.7758 20.4823 9.05313 21.0292 7.34907C21.2599 6.62726 21.5576 5.90172 21.9594 5.26549C22.6329 4.19394 23.9983 4.30928 24.4895 5.48501C25.0401 6.80585 25.4457 8.18622 25.948 9.52938C26.4242 10.8056 26.867 12.1004 27.4734 13.317C27.9609 14.2956 28.5487 15.2741 29.2966 16.0592C30.77 17.607 32.7047 18.2432 34.8181 18.3623C34.9706 18.3697 35.1232 18.3771 35.2757 18.3995C35.3352 18.4069 35.3873 18.459 35.6217 18.5855C34.7995 18.7008 34.1372 18.7901 33.4749 18.8943C31.4732 19.2106 29.8919 20.1742 28.6083 21.7778C26.8335 23.9991 26.2345 26.6817 25.3862 29.2824C25.1183 30.1047 24.8318 30.9419 24.3965 31.6823C23.723 32.832 22.5994 32.858 21.911 31.712C21.405 30.8637 21.0776 29.8963 20.7614 28.9513C20.2739 27.4854 19.8647 25.9934 19.4219 24.5125C19.3177 24.4828 19.2136 24.453 19.1094 24.4232V24.4195Z" fill="white" fill-opacity="0.5"/>
<path d="M0.774003 18.5221C3.87332 18.165 5.85272 16.4795 7.26658 14.0164C8.27488 12.2603 8.98925 10.385 9.45433 8.41307C9.48782 8.27169 9.59572 8.14891 9.68129 8.00008C10.0794 9.3172 10.4217 10.6343 10.8756 11.9068C11.3035 13.1086 11.8542 14.2434 12.7322 15.2219C14.4921 17.179 17.4054 16.7251 18.8267 14.5485C19.0425 14.2136 19.2546 13.8787 19.5336 13.4397C20.9959 16.1037 22.9976 17.9529 26.0299 18.5742C22.9269 19.1361 20.9661 21.0596 19.5262 23.7236C18.9718 22.9944 18.5328 22.321 17.997 21.7294C16.8324 20.4457 14.6782 20.1704 13.3648 21.6326C12.1407 22.9944 11.5863 24.6799 11.1361 26.3988C10.8198 27.6117 10.5891 28.847 10.3064 30.0711C10.258 30.2832 10.1575 30.4878 10.0645 30.7297C9.57339 29.1149 9.13808 27.5411 8.61346 26.0007C7.96978 24.1143 7.05078 22.3544 5.65925 20.9183C4.4277 19.6495 2.92455 18.7975 1.10142 18.6561C1.04561 18.6524 0.993522 18.6114 0.777723 18.5184L0.774003 18.5221Z" fill="white"/>
</svg>
