<svg width="290" height="55" viewBox="0 0 290 55" fill="none" xmlns="http://www.w3.org/2000/svg">
<path d="M184.06 31.2217C183.74 31.0317 183.46 30.8817 183.2 30.7117C181.87 29.8617 180.421 29.4417 178.84 29.4217C178.37 29.4217 177.9 29.4117 177.43 29.4217C174.91 29.5017 173.17 30.7417 172.16 33.0217C171.54 34.4217 171.28 35.8617 171.29 37.4117C171.34 42.4017 171.31 47.3817 171.31 52.3717C171.31 52.6017 171.29 52.8317 171.28 53.0417C170.68 53.2217 160.921 53.2717 159.84 53.0917C159.79 52.0117 159.83 50.9117 159.82 49.8017C159.82 48.6817 159.82 47.5717 159.82 46.4517C159.82 45.3417 159.82 44.2217 159.68 43.0617C159.6 43.1917 159.5 43.3117 159.43 43.4517C157.28 48.1317 153.66 51.1917 148.86 52.9117C146.37 53.8017 143.781 54.1917 141.12 54.1817C138.521 54.1817 135.98 53.8917 133.5 53.1017C128.91 51.6517 125.31 48.9817 122.99 44.7117C122.95 44.6317 122.87 44.5617 122.71 44.3517V53.0917C121.91 53.2717 121.16 53.1617 120.41 53.1817C119.63 53.2017 118.85 53.1817 118.07 53.1817C117.31 53.1817 116.56 53.1817 115.8 53.1817C115.02 53.1817 114.24 53.1817 113.46 53.1817C112.71 53.1817 111.97 53.1717 111.13 53.1617C111.13 52.7517 111.13 52.4517 111.13 52.1417C111.13 46.6117 111.14 41.0817 111.13 35.5417C111.13 34.6417 111.1 33.7117 110.9 32.8317C110.16 29.6417 107.93 28.3417 104.75 28.6417C102.13 28.8917 100.38 30.9317 100.38 33.6417C100.36 39.2217 100.38 44.8117 100.38 50.3917C100.38 51.0917 100.39 51.7917 100.38 52.4917C100.38 53.0417 100.29 53.1217 99.7505 53.1617C99.5905 53.1717 99.4405 53.1617 99.2805 53.1617C96.0805 53.1617 92.8705 53.1617 89.6705 53.1617C89.4105 53.1617 89.1605 53.1417 88.8205 53.1217C88.7905 52.7317 88.7405 52.3817 88.7405 52.0317C88.7405 46.2917 88.7405 40.5517 88.7705 34.8117C88.7705 33.7317 88.6305 32.6917 88.2105 31.6917C87.4705 29.9417 86.1705 28.9317 84.2705 28.6517C83.3505 28.5217 82.4505 28.5317 81.5505 28.7517C79.6305 29.2217 78.6605 30.6017 78.1805 32.3817C78.0005 33.0517 77.9605 33.7717 77.9605 34.4617C77.9505 40.3817 77.9605 46.3017 77.9605 52.2217C77.9605 52.4717 77.9605 52.7317 77.9605 52.9517C77.3205 53.1817 67.3205 53.2217 66.5005 53.0117V20.2917H77.9105V23.6017C78.2705 23.3117 78.4805 23.1517 78.6805 22.9817C80.2805 21.5417 82.0605 20.3917 84.1405 19.7417C85.9905 19.1717 87.8605 19.0917 89.7705 19.4117C91.0105 19.6117 92.2005 19.9517 93.3705 20.4017C95.4805 21.2017 97.1805 22.5117 98.4205 24.4017C98.5205 24.5517 98.6305 24.7017 98.7405 24.8417C98.7905 24.9017 98.8605 24.9317 98.9705 25.0117C99.1105 24.8717 99.2605 24.7417 99.4005 24.6017C100.13 23.8917 100.81 23.1417 101.58 22.4817C105.49 19.1517 109.9 18.4717 114.74 20.0417C116.22 20.5217 117.56 21.2517 118.79 22.1817C120.59 23.5317 121.67 25.3717 122.2 27.5217C122.36 28.1517 122.46 28.7917 122.6 29.4917C122.71 29.3217 122.81 29.1917 122.89 29.0517C124.54 25.9117 127.05 23.6217 130.1 21.9017C132.49 20.5617 135.06 19.8217 137.78 19.4417C139.32 19.2317 140.851 19.1717 142.37 19.2617C146.37 19.5117 150.1 20.6017 153.4 22.9517C155.701 24.5917 157.62 26.5817 158.92 29.1017C159.19 29.6317 159.41 30.1817 159.73 30.8817C159.9 29.8817 159.76 29.0217 159.79 28.1617C159.82 27.3017 159.79 26.4517 159.79 25.5917C159.79 24.7117 159.79 23.8217 159.79 22.9417C159.79 22.0917 159.79 21.2417 159.79 20.4017C160.37 20.2117 170.23 20.1717 171.24 20.3517V24.5917C171.24 24.5917 171.33 24.6417 171.38 24.6617C171.52 24.5017 171.65 24.3517 171.79 24.1917C173.72 22.0117 175.93 20.2717 178.85 19.5717C182.23 18.7717 185.35 19.4817 188.32 21.1217C188.43 21.1817 188.52 21.2717 188.68 21.4017C187.96 22.8817 187.24 24.3317 186.52 25.7917C189.4 22.0917 193.11 19.8217 197.8 19.3217C202.42 18.8317 206.63 19.9417 210.34 23.1017V20.3017C211.35 20.1717 212.3 20.2517 213.25 20.2417C214.21 20.2317 215.18 20.2417 216.14 20.2417C217.08 20.2417 218.02 20.2417 218.95 20.2417C219.91 20.2417 220.861 20.2417 221.87 20.2417V53.0517C221.66 53.0817 221.44 53.1417 221.22 53.1417C217.83 53.1417 214.45 53.1417 211.06 53.1417C210.91 53.1417 210.75 53.1117 210.51 53.0817C210.32 52.0117 210.49 50.9217 210.41 49.7017C210.15 49.9217 209.98 50.0417 209.82 50.1917C207.71 52.2017 205.22 53.5117 202.32 53.9117C195.73 54.8317 190.38 52.7117 186.46 47.2917C184.52 44.6117 183.59 41.5617 183.34 38.2817C183.171 36.0117 183.36 33.7717 183.94 31.5717C183.97 31.4517 183.99 31.3217 184.02 31.1717L184.06 31.2217ZM133.49 36.6517C133.49 36.9317 133.49 37.0817 133.49 37.2417C133.53 40.1017 134.84 42.1817 137.36 43.5317C138.65 44.2217 140.04 44.3017 141.46 44.2617C143.97 44.1917 145.87 43.0417 147.28 41.0117C148.08 39.8617 148.36 38.5517 148.42 37.1817C148.48 35.8217 148.36 34.4617 147.69 33.2517C146.23 30.6017 144.02 29.1917 140.91 29.1917C138.69 29.1917 136.84 29.9717 135.34 31.5617C133.97 33.0117 133.37 34.7717 133.49 36.6417V36.6517ZM203.07 44.3217C203.77 44.2417 204.49 44.2517 205.15 44.0617C208.001 43.2617 209.83 41.4417 210.42 38.5117C210.83 36.4917 210.68 34.4917 209.55 32.7317C207.59 29.6817 204.88 28.7717 201.7 29.3017C198.72 29.8017 196.65 31.6017 195.89 34.6017C195.66 35.5117 195.72 36.5017 195.69 37.4617C195.65 39.0917 196.22 40.5217 197.26 41.7517C198.77 43.5317 200.72 44.3417 203.06 44.3317L203.07 44.3217Z" fill="#6079FB"/>
<path d="M53.4404 23.1417V20.4617C54.0704 20.2417 64.0204 20.2217 64.9804 20.4217V53.1017C64.7404 53.1317 64.4904 53.1917 64.2404 53.1917C60.9604 53.1917 57.6804 53.1917 54.3904 53.1917C54.1604 53.1917 53.9304 53.1517 53.6304 53.1217C53.4404 52.0217 53.6104 50.9317 53.5104 49.6917C52.0504 51.0517 50.5904 52.2517 48.8304 52.9717C47.0604 53.6917 45.2304 54.1417 43.3004 54.1717C41.3904 54.1917 39.5204 53.9917 37.6904 53.4117C35.8504 52.8317 34.2004 51.9417 32.7004 50.7317C31.2204 49.5317 30.0204 48.0817 28.9504 46.4117C28.8504 46.6117 28.7704 46.7417 28.7204 46.8817C27.6504 50.0117 25.3404 51.8417 22.3204 52.9117C20.6904 53.4917 19.0104 53.7917 17.3004 54.0017C15.4304 54.2317 13.5504 54.2517 11.6904 54.0917C9.11038 53.8817 6.64037 53.1417 4.29037 52.0117C2.95037 51.3617 1.64037 50.4517 0.880371 49.6217C2.41037 47.0517 3.96037 44.4717 5.54037 41.8217C5.80037 42.0017 6.01037 42.1217 6.20037 42.2817C7.72037 43.5017 9.45037 44.3417 11.2304 45.0717C12.5504 45.6217 13.9304 45.6417 15.3004 45.4017C16.6904 45.1617 17.3804 44.0317 17.0204 42.6817C16.8704 42.1417 16.4704 41.7917 16.0004 41.5617C15.1304 41.1417 14.2604 40.7417 13.3604 40.4117C10.9304 39.5217 8.60037 38.4417 6.57037 36.8017C5.03037 35.5617 3.81037 34.1017 3.43037 32.1117C2.62037 27.9017 3.95036 23.9117 7.88036 21.6117C11.2904 19.6117 15.0204 19.1517 18.8704 19.3117C21.3004 19.4117 23.6704 19.9317 25.9804 20.6717C26.9104 20.9717 27.7904 21.4317 28.7804 21.8617C27.5504 24.4717 26.2704 26.9117 25.0104 29.4617C24.6304 29.3017 24.3204 29.2017 24.0304 29.0517C22.5804 28.3117 21.0504 27.7817 19.4404 27.6117C18.3304 27.4917 17.2104 27.5317 16.0904 27.5317C15.8604 27.5317 15.6304 27.6217 15.4104 27.6917C14.8404 27.8517 14.4304 28.1917 14.3104 28.7917C14.1804 29.4717 14.2804 30.1117 14.8604 30.5517C15.2704 30.8517 15.7404 31.1217 16.2204 31.3017C17.4604 31.7617 18.7204 32.1817 19.9904 32.5617C22.2404 33.2417 24.2804 34.2917 26.1104 35.7517C26.1704 35.7917 26.2404 35.8117 26.4104 35.8917C26.4404 35.5217 26.4504 35.2017 26.4804 34.8817C27.0404 28.8817 29.8504 24.2817 35.0604 21.1917C36.6204 20.2717 38.3504 19.8017 40.1404 19.5017C42.2504 19.1417 44.3404 19.2317 46.4204 19.6517C48.7004 20.1117 50.7704 21.0617 52.6004 22.5017C52.8404 22.6917 53.0804 22.8617 53.4404 23.1417ZM46.1604 44.3117C46.8304 44.2417 47.5304 44.2617 48.1704 44.0817C51.2104 43.2217 53.0904 41.2517 53.5704 38.1017C53.8804 36.0917 53.6304 34.1417 52.4404 32.4417C50.9404 30.3117 48.8804 29.1917 46.2104 29.2017C43.5204 29.2017 41.4104 30.2717 39.9004 32.4417C38.6904 34.1717 38.5004 36.1517 38.7904 38.1917C39.1304 40.5917 40.3804 42.3717 42.5504 43.5017C43.6904 44.0917 44.9004 44.3217 46.1804 44.3217L46.1604 44.3117Z" fill="#6079FB"/>
<path d="M264.42 22.9616V20.4616C265.06 20.2516 275.03 20.2316 275.96 20.4216V53.1016C275.69 53.1316 275.41 53.1916 275.14 53.1916C271.94 53.1916 268.73 53.1916 265.53 53.1916C265.25 53.1916 264.97 53.1616 264.62 53.1316C264.43 52.0216 264.6 50.9316 264.5 49.7616C264.31 49.9016 264.16 49.9816 264.04 50.0916C261.7 52.4216 258.86 53.8016 255.6 54.0916C249.93 54.6116 245.07 52.9016 241.36 48.4116C238.93 45.4716 237.66 42.0816 237.43 38.2816C237.23 35.0116 237.57 31.8416 239 28.8616C241.3 24.0816 244.89 20.7516 250.2 19.6516C255.13 18.6216 259.72 19.4716 263.76 22.6316C263.9 22.7416 264.05 22.8516 264.2 22.9516C264.23 22.9716 264.3 22.9516 264.41 22.9516L264.42 22.9616ZM257.13 44.2816C257.62 44.2516 258.12 44.2316 258.61 44.1916C258.79 44.1816 258.97 44.1416 259.15 44.0916C262.19 43.2016 264.07 41.2516 264.54 38.1016C264.86 35.9816 264.58 33.9416 263.23 32.1816C261.6 30.0516 259.43 29.0416 256.71 29.2016C253.8 29.3716 251.68 30.7316 250.37 33.3016C249.6 34.8116 249.51 36.4416 249.74 38.0916C250.12 40.8116 251.6 42.7116 254.14 43.7816C255.1 44.1816 256.1 44.2816 257.13 44.2716V44.2816Z" fill="#6079FB"/>
<path d="M277.5 53.0618V20.4217C278.13 20.2617 287.95 20.2217 288.82 20.3717C288.98 20.9017 289.03 52.1517 288.88 53.0417C288.32 53.2417 278.31 53.2817 277.5 53.0717V53.0618Z" fill="#6079FB"/>
<path d="M223.46 46.7016C223.24 43.2616 226.26 39.3516 230.76 39.3516C235.3 39.3516 238.26 43.0116 238.25 46.8816C238.25 50.9716 234.48 54.3016 230.62 54.2216C227.18 54.1416 223.18 50.9416 223.45 46.7116L223.46 46.7016Z" fill="#6079FB"/>
<path d="M289.97 6.85165C290.27 9.63165 287.46 13.4916 283.37 13.4616C279.35 13.4316 276.69 9.93164 276.7 6.77164C276.72 3.73164 279.42 0.241647 283.33 0.211647C286.94 0.181647 289.96 3.21164 289.96 6.86164L289.97 6.85165Z" fill="#6079FB"/>
</svg>
