<svg width="108" height="22" viewBox="0 0 108 22" fill="none" xmlns="http://www.w3.org/2000/svg">
<path d="M68.2942 12.4533C68.1751 12.3826 68.071 12.3268 67.9742 12.2635C67.4794 11.9473 66.9399 11.791 66.352 11.7836C66.1772 11.7836 66.0023 11.7799 65.8274 11.7836C64.8898 11.8133 64.2424 12.2747 63.8666 13.123C63.6359 13.6439 63.5392 14.1797 63.5429 14.7564C63.5615 16.613 63.5503 18.4659 63.5503 20.3225C63.5503 20.4081 63.5429 20.4937 63.5392 20.5718C63.3159 20.6388 59.6846 20.6574 59.2827 20.5904C59.2641 20.1886 59.279 19.7793 59.2753 19.3663C59.2753 18.9496 59.2753 18.5366 59.2753 18.1199C59.2753 17.7069 59.2753 17.2902 59.2232 16.8586C59.1934 16.907 59.1562 16.9516 59.1302 17.0037C58.3303 18.745 56.9834 19.8835 55.1974 20.5234C54.271 20.8546 53.3073 20.9997 52.3176 20.996C51.3503 20.996 50.4052 20.8881 49.4825 20.5941C47.7747 20.0546 46.4353 19.0612 45.5721 17.4725C45.5572 17.4427 45.5274 17.4167 45.4679 17.3385V20.5904C45.1702 20.6574 44.8912 20.6165 44.6121 20.6239C44.3219 20.6313 44.0317 20.6239 43.7415 20.6239C43.4587 20.6239 43.1797 20.6239 42.8969 20.6239C42.6067 20.6239 42.3165 20.6239 42.0263 20.6239C41.7472 20.6239 41.4719 20.6202 41.1593 20.6165C41.1593 20.4639 41.1593 20.3523 41.1593 20.237C41.1593 18.1794 41.1631 16.1219 41.1593 14.0606C41.1593 13.7258 41.1482 13.3798 41.0738 13.0523C40.7984 11.8654 39.9687 11.3818 38.7856 11.4934C37.8107 11.5864 37.1596 12.3454 37.1596 13.3537C37.1522 15.4298 37.1596 17.5097 37.1596 19.5858C37.1596 19.8463 37.1633 20.1067 37.1596 20.3672C37.1596 20.5718 37.1261 20.6016 36.9252 20.6165C36.8657 20.6202 36.8099 20.6165 36.7503 20.6165C35.5597 20.6165 34.3654 20.6165 33.1748 20.6165C33.078 20.6165 32.985 20.609 32.8585 20.6016C32.8474 20.4565 32.8288 20.3262 32.8288 20.196C32.8288 18.0604 32.8288 15.9247 32.8399 13.789C32.8399 13.3872 32.7878 13.0002 32.6316 12.6282C32.3562 11.9771 31.8725 11.6013 31.1656 11.4971C30.8233 11.4487 30.4885 11.4524 30.1536 11.5343C29.4392 11.7092 29.0783 12.2226 28.8997 12.8849C28.8327 13.1342 28.8179 13.4021 28.8179 13.6588C28.8141 15.8614 28.8179 18.0641 28.8179 20.2667C28.8179 20.3597 28.8179 20.4565 28.8179 20.5383C28.5797 20.6239 24.8591 20.6388 24.554 20.5607V8.38661H28.7993V9.61815C28.9332 9.51025 29.0113 9.45072 29.0858 9.38747C29.6811 8.85169 30.3433 8.42381 31.1172 8.18197C31.8056 7.96989 32.5013 7.94013 33.212 8.05919C33.6733 8.1336 34.1161 8.2601 34.5514 8.42754C35.3365 8.72519 35.969 9.2126 36.4304 9.9158C36.4676 9.97161 36.5085 10.0274 36.5494 10.0795C36.568 10.1018 36.5941 10.113 36.635 10.1428C36.6871 10.0907 36.7429 10.0423 36.795 9.99022C37.0666 9.72605 37.3196 9.447 37.6061 9.20144C39.0609 7.96245 40.7017 7.70945 42.5025 8.29359C43.0532 8.47218 43.5517 8.74379 44.0094 9.08981C44.6791 9.59211 45.0809 10.2767 45.2781 11.0767C45.3377 11.3111 45.3749 11.5492 45.427 11.8096C45.4679 11.7464 45.5051 11.698 45.5349 11.6459C46.1488 10.4776 47.0826 9.62559 48.2175 8.98564C49.1067 8.48707 50.0629 8.21174 51.0749 8.07035C51.6479 7.99222 52.2172 7.96989 52.7827 8.00338C54.271 8.0964 55.6588 8.50195 56.8866 9.37631C57.7424 9.9865 58.4567 10.7269 58.9404 11.6645C59.0409 11.8617 59.1227 12.0664 59.2418 12.3268C59.3051 11.9547 59.253 11.6348 59.2641 11.3148C59.2753 10.9948 59.2641 10.6785 59.2641 10.3586C59.2641 10.0311 59.2641 9.70001 59.2641 9.37259C59.2641 9.05633 59.2641 8.74007 59.2641 8.42754C59.4799 8.35684 63.1485 8.34196 63.5243 8.40893V9.9865C63.5243 9.9865 63.5578 10.0051 63.5764 10.0125C63.6285 9.95301 63.6769 9.8972 63.7289 9.83767C64.447 9.02656 65.2693 8.37917 66.3557 8.11872C67.6133 7.82106 68.7742 8.08523 69.8792 8.69542C69.9201 8.71775 69.9536 8.75123 70.0132 8.7996C69.7453 9.35026 69.4774 9.88976 69.2095 10.433C70.2811 9.05633 71.6614 8.21174 73.4064 8.0257C75.1254 7.84339 76.6918 8.25638 78.0721 9.43212V8.39033C78.4479 8.34196 78.8014 8.37173 79.1548 8.368C79.512 8.36428 79.8729 8.368 80.2301 8.368C80.5799 8.368 80.9296 8.368 81.2756 8.368C81.6328 8.368 81.9863 8.368 82.3621 8.368V20.5755C82.2839 20.5867 82.2021 20.609 82.1202 20.609C80.8589 20.609 79.6013 20.609 78.34 20.609C78.2842 20.609 78.2247 20.5979 78.1354 20.5867C78.0647 20.1886 78.1279 19.783 78.0982 19.3291C78.0014 19.411 77.9382 19.4556 77.8787 19.5114C77.0936 20.2593 76.1672 20.7467 75.0882 20.8955C72.6362 21.2378 70.6457 20.449 69.1872 18.4324C68.4654 17.4353 68.1193 16.3005 68.0263 15.0801C67.9631 14.2355 68.0338 13.4021 68.2496 12.5835C68.2607 12.5389 68.2682 12.4905 68.2793 12.4347L68.2942 12.4533ZM49.4788 14.4736C49.4788 14.5778 49.4788 14.6336 49.4788 14.6931C49.4937 15.7573 49.9811 16.5312 50.9187 17.0335C51.3986 17.2902 51.9158 17.3199 52.4441 17.3051C53.378 17.279 54.085 16.8511 54.6096 16.0958C54.9072 15.668 55.0114 15.1806 55.0337 14.6708C55.0561 14.1648 55.0114 13.6588 54.7621 13.2086C54.2189 12.2226 53.3966 11.698 52.2395 11.698C51.4135 11.698 50.7252 11.9882 50.1671 12.5798C49.6574 13.1193 49.4341 13.7741 49.4788 14.4699V14.4736ZM75.3672 17.3274C75.6277 17.2976 75.8955 17.3013 76.1411 17.2306C77.2015 16.933 77.8824 16.2558 78.1019 15.1657C78.2545 14.4141 78.1986 13.67 77.7782 13.0151C77.049 11.8803 76.0407 11.5417 74.8575 11.7389C73.7487 11.925 72.9785 12.5947 72.6958 13.7109C72.6102 14.0495 72.6325 14.4178 72.6213 14.775C72.6065 15.3815 72.8185 15.9135 73.2055 16.3712C73.7673 17.0335 74.4928 17.3348 75.3635 17.3311L75.3672 17.3274Z" fill="white"/>
<path d="M19.6947 9.44714V8.45C19.9291 8.36814 23.6312 8.3607 23.9884 8.43511V20.5943C23.8991 20.6054 23.8061 20.6278 23.7131 20.6278C22.4927 20.6278 21.2723 20.6278 20.0482 20.6278C19.9626 20.6278 19.8771 20.6129 19.7654 20.6017C19.6947 20.1924 19.758 19.7869 19.7208 19.3255C19.1776 19.8315 18.6344 20.278 17.9795 20.5459C17.321 20.8138 16.6401 20.9812 15.922 20.9924C15.2113 20.9998 14.5156 20.9254 13.8347 20.7096C13.1501 20.4938 12.5362 20.1627 11.9781 19.7125C11.4274 19.266 10.9809 18.7265 10.5828 18.1051C10.5456 18.1796 10.5158 18.2279 10.4972 18.28C10.0991 19.4446 9.23965 20.1255 8.11601 20.5236C7.50954 20.7394 6.88447 20.851 6.24823 20.9291C5.55247 21.0147 4.85298 21.0221 4.16093 20.9626C3.201 20.8845 2.28199 20.6092 1.40763 20.1887C0.909063 19.9469 0.421657 19.6083 0.138885 19.2995C0.708148 18.3433 1.28485 17.3833 1.87272 16.3974C1.96945 16.4643 2.04759 16.509 2.11828 16.5685C2.68383 17.0224 3.3275 17.335 3.98978 17.6066C4.48091 17.8112 4.99437 17.8186 5.5041 17.7294C6.02127 17.6401 6.278 17.2196 6.14405 16.7173C6.08824 16.5164 5.93942 16.3862 5.76454 16.3006C5.44085 16.1443 5.11715 15.9955 4.78229 15.8727C3.87816 15.5416 3.01124 15.1398 2.25595 14.5296C1.68296 14.0682 1.22904 13.525 1.08766 12.7846C0.786284 11.2182 1.28113 9.73363 2.74335 8.87787C4.0121 8.13374 5.39992 7.96259 6.83237 8.02212C7.7365 8.05932 8.6183 8.2528 9.47777 8.52813C9.8238 8.63975 10.1512 8.8109 10.5196 8.97089C10.0619 9.94198 9.58567 10.8498 9.11687 11.7986C8.97548 11.7391 8.86014 11.7019 8.75224 11.6461C8.21275 11.3707 7.64348 11.1735 7.04446 11.1103C6.63146 11.0656 6.21474 11.0805 5.79803 11.0805C5.71245 11.0805 5.62688 11.114 5.54503 11.14C5.33295 11.1996 5.1804 11.3261 5.13575 11.5493C5.08738 11.8023 5.12459 12.0404 5.34039 12.2042C5.49293 12.3158 5.66781 12.4162 5.8464 12.4832C6.30776 12.6544 6.77656 12.8106 7.24909 12.952C8.08624 13.205 8.84526 13.5957 9.52614 14.1389C9.54847 14.1538 9.57451 14.1612 9.63777 14.191C9.64893 14.0533 9.65265 13.9343 9.66381 13.8152C9.87216 11.5828 10.9177 9.87129 12.8561 8.7216C13.4366 8.3793 14.0802 8.20443 14.7462 8.09281C15.5313 7.95887 16.3089 7.99235 17.0828 8.14862C17.9311 8.31977 18.7013 8.67324 19.3822 9.20901C19.4715 9.2797 19.5608 9.34296 19.6947 9.44714ZM16.9861 17.3238C17.2354 17.2978 17.4958 17.3052 17.7339 17.2382C18.865 16.9182 19.5645 16.1853 19.7431 15.0133C19.8584 14.2654 19.7654 13.5399 19.3227 12.9074C18.7646 12.1149 17.9981 11.6981 17.0047 11.7019C16.0038 11.7019 15.2188 12.1 14.6569 12.9074C14.2067 13.551 14.1361 14.2877 14.244 15.0467C14.3705 15.9397 14.8355 16.602 15.6429 17.0224C16.0671 17.2419 16.5173 17.3275 16.9935 17.3275L16.9861 17.3238Z" fill="white"/>
<path d="M98.1935 9.38025V8.45008C98.4316 8.37195 102.141 8.3645 102.487 8.4352V20.5944C102.387 20.6055 102.282 20.6278 102.182 20.6278C100.991 20.6278 99.7971 20.6278 98.6064 20.6278C98.5023 20.6278 98.3981 20.6167 98.2679 20.6055C98.1972 20.1925 98.2604 19.787 98.2232 19.3517C98.1525 19.4037 98.0967 19.4335 98.0521 19.4744C97.1814 20.3413 96.1248 20.8548 94.9118 20.9627C92.8022 21.1562 90.994 20.5199 89.6136 18.8494C88.7095 17.7555 88.2369 16.4942 88.1514 15.0803C88.0769 13.8637 88.2034 12.6842 88.7355 11.5754C89.5913 9.79696 90.927 8.55798 92.9027 8.1487C94.7369 7.76548 96.4447 8.08173 97.9479 9.25746C98 9.29839 98.0558 9.33932 98.1116 9.37653C98.1228 9.38397 98.1488 9.37653 98.1897 9.37653L98.1935 9.38025ZM95.4811 17.3127C95.6634 17.3016 95.8494 17.2941 96.0317 17.2792C96.0987 17.2755 96.1657 17.2606 96.2327 17.242C97.3637 16.9109 98.0632 16.1854 98.2381 15.0133C98.3572 14.2246 98.253 13.4655 97.7507 12.8107C97.1442 12.0182 96.3368 11.6424 95.3248 11.7019C94.2421 11.7652 93.4533 12.2712 92.9659 13.2274C92.6794 13.7892 92.6459 14.3957 92.7315 15.0096C92.8729 16.0216 93.4236 16.7286 94.3686 17.1267C94.7258 17.2755 95.0979 17.3127 95.4811 17.309V17.3127Z" fill="white"/>
<path d="M103.06 20.5794V8.43513C103.295 8.3756 106.948 8.36071 107.272 8.41652C107.331 8.61372 107.35 20.2408 107.294 20.572C107.086 20.6464 103.361 20.6613 103.06 20.5831V20.5794Z" fill="white"/>
<path d="M82.9537 18.2129C82.8718 16.9329 83.9955 15.4782 85.6698 15.4782C87.359 15.4782 88.4603 16.8399 88.4566 18.2798C88.4566 19.8016 87.0539 21.0406 85.6177 21.0108C84.3378 20.981 82.8495 19.7904 82.95 18.2166L82.9537 18.2129Z" fill="white"/>
<path d="M107.7 3.38609C107.812 4.42043 106.766 5.85661 105.244 5.84545C103.749 5.83429 102.759 4.53205 102.763 3.35632C102.77 2.22524 103.775 0.926723 105.229 0.915561C106.573 0.904399 107.696 2.03176 107.696 3.38981L107.7 3.38609Z" fill="white"/>
</svg>
